PathFileType	4	(X/Y/Z)	C:/Users/opensim2020/Desktop/walking_exp_matlab/subject01_walking08_straight_01.trc	
DataRate	CameraRate	NumFrames	NumMarkers	Units	OrigDataRate	OrigDataStartFrame	OrigNumFrames	
100.00	100.00	5	43	mm	100.00	918	377	
Frame#	Time	LFHD			RFHD			LBHD			RBHD			C7			T10			CLAV			STRN			RBAK			LSHO			LUPA			LELB			LFRM			LWRA			LWRB			LFIN			RSHO			RUPA			RELB			RFRM			RWRA			RWRB			RFIN			LASI			RASI			LPSI			RPSI			LTHI			LKNE			LTIB			LANK			LHEE			LTOE			RTHI			RKNE			RTIB			RANK			RHEE			RTOE			*39			*40			*41			*42			
		X1	Y1	Z1	X2	Y2	Z2	X3	Y3	Z3	X4	Y4	Z4	X5	Y5	Z5	X6	Y6	Z6	X7	Y7	Z7	X8	Y8	Z8	X9	Y9	Z9	X10	Y10	Z10	X11	Y11	Z11	X12	Y12	Z12	X13	Y13	Z13	X14	Y14	Z14	X15	Y15	Z15	X16	Y16	Z16	X17	Y17	Z17	X18	Y18	Z18	X19	Y19	Z19	X20	Y20	Z20	X21	Y21	Z21	X22	Y22	Z22	X23	Y23	Z23	X24	Y24	Z24	X25	Y25	Z25	X26	Y26	Z26	X27	Y27	Z27	X28	Y28	Z28	X29	Y29	Z29	X30	Y30	Z30	X31	Y31	Z31	X32	Y32	Z32	X33	Y33	Z33	X34	Y34	Z34	X35	Y35	Z35	X36	Y36	Z36	X37	Y37	Z37	X38	Y38	Z38	X39	Y39	Z39	X40	Y40	Z40	X41	Y41	Z41	X42	Y42	Z42	X43	Y43	Z43	

189	1.880	-1032.40833	-276.05453	1677.27173	-919.33942	-263.08066	1687.08899	-1023.20789	-375.82336	1602.17285	-903.06805	-364.68988	1610.27576	-977.73492	-375.48584	1430.80750	-957.94623	-405.08069	1137.96118	-978.89276	-230.86412	1364.80029	-980.06860	-186.27458	1208.82642	-891.06335	-424.23575	1239.22791	-1139.61853	-295.78351	1387.99939	-1214.71997	-336.39084	1200.12646	-1206.29395	-360.77106	1052.95349	-1230.27600	-338.21927	942.03674	-1213.17017	-274.95996	817.40411	-1235.67725	-331.12109	819.69116	-1242.81348	-294.36664	742.40363	-825.50446	-287.14307	1393.78381	-714.82159	-320.71265	1191.73938	-711.16382	-307.10751	1066.80542	-689.33655	-257.63010	954.49048	-724.80609	-164.31004	852.99298	-680.20233	-201.29797	845.99542	-688.73175	-152.05888	776.48859	-1065.16345	-231.74113	938.30115	-846.16498	-237.73335	926.42230	-1018.49078	-419.34488	945.35144	-874.04858	-421.82654	945.36084	-1142.49670	-196.74281	618.71765	-1126.88232	-171.92169	487.07529	-1144.05750	-185.79250	301.65683	-1103.65344	-156.44756	79.14288	-1047.39502	-189.81413	39.88657	-1113.95032	-10.24421	69.87877	-805.77307	-324.76645	594.90015	-836.25360	-333.91125	436.87427	-832.19116	-404.04993	274.23502	-886.56647	-453.18005	74.89177	-937.47040	-504.46307	38.25766	-884.90057	-314.95010	33.83167	-941.48242	-284.55930	1715.48560	-3102.08423	1973.07971	1023.61237	-3140.70801	2012.46729	1021.93970			 
190	1.890	-1033.50708	-270.05469	1676.62109	-920.38306	-257.03638	1686.55945	-1024.29041	-369.91153	1601.55029	-904.12860	-358.78867	1609.78430	-978.61499	-369.44287	1430.05334	-958.50305	-398.73981	1137.13855	-979.84167	-224.88937	1364.17896	-980.85034	-180.01097	1208.22095	-891.72955	-418.14133	1238.53699	-1140.57117	-290.01077	1387.23450	-1215.35632	-331.04117	1199.32703	-1206.82556	-355.69843	1052.37329	-1230.90845	-333.86935	941.31689	-1214.14368	-271.30859	816.26636	-1236.30457	-327.56104	818.91577	-1243.61096	-291.37723	741.38403	-826.36340	-281.08185	1393.14539	-715.63910	-314.76953	1191.15271	-711.78864	-301.05844	1066.24829	-689.97540	-251.51981	953.97546	-725.38184	-158.10289	852.21539	-680.76007	-195.14905	845.37988	-689.40692	-145.72597	775.86420	-1065.49084	-225.12086	937.48358	-846.49115	-231.87003	925.73688	-1019.30780	-412.96317	944.87469	-874.84149	-416.02850	945.21515	-1143.26367	-190.87117	617.90350	-1127.55066	-166.46301	486.42160	-1144.88586	-176.40443	301.02841	-1104.63171	-141.05469	79.15034	-1048.39160	-173.95454	39.30504	-1113.79041	5.67994	72.36119	-805.89221	-320.78595	594.47406	-836.69751	-331.24542	436.25443	-831.90955	-402.35510	274.46478	-886.33588	-452.53726	75.40056	-937.20386	-504.39648	38.80955	-884.82788	-315.00995	33.75709	-942.55225	-278.53326	1714.88904	-3101.97705	1973.16321	1023.57184	-3140.72925	2012.54712	1022.00067			 
191	1.900	-1034.60596	-264.01138	1675.91956	-921.54218	-251.03995	1685.90027	-1025.40063	-363.75116	1600.90015	-905.29462	-352.79828	1609.21448	-979.58673	-363.38034	1429.27698	-959.19458	-392.42514	1136.37976	-981.16809	-218.73389	1363.48730	-981.68115	-173.78661	1207.58105	-892.56573	-411.93188	1237.77100	-1141.59192	-284.18518	1386.40894	-1216.06799	-325.56418	1198.50049	-1207.40686	-350.50858	1051.63733	-1231.60999	-329.34067	940.56079	-1215.17065	-267.38696	815.16742	-1237.03784	-323.76108	818.08356	-1244.43542	-288.08160	740.32770	-827.33789	-275.06134	1392.52917	-716.48920	-308.65610	1190.56934	-712.60248	-294.89001	1065.69055	-690.71771	-245.44286	953.40576	-726.24493	-152.51108	851.52515	-681.43964	-189.20636	844.75928	-690.06946	-140.19096	775.17944	-1065.80103	-218.53914	936.69690	-846.95062	-226.00014	924.93756	-1020.19385	-406.58112	944.28094	-875.85931	-410.26025	944.94635	-1143.89063	-184.87128	617.24451	-1128.25635	-160.81129	485.78683	-1145.62854	-167.29012	300.40488	-1105.42627	-126.91521	79.17413	-1049.50000	-159.23001	38.70451	-1113.63257	20.36663	75.25529	-806.13226	-316.64679	594.01190	-836.63214	-328.13101	436.03812	-831.85638	-400.50125	274.51517	-886.10052	-452.46512	75.71765	-936.92908	-504.36499	39.62438	-884.73352	-314.92261	33.68209	-943.68530	-272.55923	1714.29553	-3101.93872	1973.09460	1023.41406	-3140.67017	2012.61987	1022.05225			 
192	1.910	-1035.90857	-257.93866	1675.22412	-922.81366	-245.02101	1685.33032	-1026.63501	-357.69025	1600.18384	-906.51642	-346.81033	1608.65137	-980.77545	-357.18716	1428.61987	-960.08649	-386.10461	1135.60498	-981.91705	-212.62865	1362.79626	-982.56671	-167.45418	1206.92456	-893.47083	-405.82663	1237.08289	-1142.74658	-278.20694	1385.59106	-1216.94312	-319.93381	1197.65625	-1208.11682	-345.16605	1050.98059	-1232.34058	-324.64996	939.79706	-1216.17334	-263.19992	814.06049	-1237.83716	-319.64441	817.26862	-1245.33350	-284.41968	739.29132	-828.33820	-269.10110	1391.83118	-717.48492	-302.57553	1189.93018	-713.42810	-289.17593	1065.00183	-691.53168	-239.47839	952.77332	-726.73676	-146.32671	850.77643	-682.18848	-183.68793	844.13983	-690.68927	-134.36957	774.49927	-1066.13367	-211.79524	935.85114	-847.45337	-220.02330	924.27704	-1021.22424	-400.07239	943.74030	-876.90216	-404.08334	944.51300	-1144.48145	-178.54114	616.67084	-1128.83618	-154.90810	485.23196	-1146.36084	-158.42528	299.85352	-1106.29321	-113.82673	79.24617	-1050.66833	-145.71085	37.99716	-1113.58301	33.72314	77.99727	-806.38458	-312.33096	593.68793	-836.71149	-324.98605	435.58945	-831.62335	-398.78799	274.83664	-885.88464	-452.04874	76.18495	-936.70667	-504.18301	40.31905	-884.61438	-314.89905	33.62088	-944.90643	-266.56427	1713.72412	-3101.81372	1973.11609	1023.47052	-3140.81836	2012.54175	1021.93140			 
193	1.920	-1037.24194	-251.87909	1674.47131	-924.18939	-239.10722	1684.69116	-1028.06653	-351.60797	1599.39697	-907.93719	-340.82468	1608.00647	-981.85638	-350.90872	1427.78503	-961.16412	-379.74423	1134.83777	-983.02344	-206.43307	1362.06836	-983.54279	-161.17821	1206.26270	-894.58380	-399.54593	1236.38306	-1143.90662	-272.06119	1384.71387	-1217.82654	-314.19550	1196.81934	-1208.91357	-339.70630	1050.19629	-1233.20264	-319.72351	938.99677	-1217.30579	-258.72784	813.00385	-1238.55273	-315.26324	816.38348	-1246.34998	-280.36954	738.33533	-829.59106	-262.82623	1390.97668	-718.62598	-296.39273	1189.26172	-714.49487	-282.83908	1064.50500	-692.41681	-233.56430	952.19824	-727.64056	-140.83012	849.92889	-682.92792	-177.50635	843.40564	-691.31403	-128.71880	773.75598	-1066.42969	-205.16975	935.05914	-847.93445	-214.07001	923.66724	-1022.37122	-393.46335	943.03064	-878.05188	-397.83734	944.10126	-1144.98804	-171.91154	616.15485	-1129.43433	-148.65912	484.63391	-1147.21521	-149.72136	299.23105	-1107.14587	-101.90459	79.28809	-1051.80908	-133.49844	37.48790	-1113.05603	46.23487	80.24944	-806.72833	-307.91785	593.34296	-836.87592	-321.51724	435.24402	-831.74194	-396.67172	275.17093	-885.76300	-451.88385	76.75475	-936.54089	-504.06924	41.22909	-884.52014	-314.82202	33.60690	-946.47009	-260.56033	1713.04712	-3102.04175	1973.17200	1023.55682	-3140.69434	2012.56091	1022.03986			 
